General                          : ChattChitto RG - Movies [R2L]
===========
Complete name                    : Salt Director's Cut 2010 720p H264 BRRip [ChattChitto RG]
Format                           : MPEG-4
Format profile                   : Base Media
Codec ID                         : isom
File size                        : 1.93 GiB
Duration                         : 1h 44mn
Overall bit rate                 : 2 658 Kbps
Encoded date                     : UTC 2011-01-12 10:52:59

Video
===========
ID                               : 1
Format                           : AVC
Format/Info                      : Advanced Video Codec
Format profile                   : High@L4.0
Format settings, CABAC           : Yes
Format settings, ReFrames        : 4 frames
Codec ID                         : avc1
Codec ID/Info                    : Advanced Video Coding
Duration                         : 1h 44mn
Bit rate mode                    : Variable
Bit rate                         : 2 300 Kbps
Maximum bit rate                 : 13.1 Mbps
Width                            : 1 280 pixels
Height                           : 528 pixels
Display aspect ratio             : 2.40:1
Frame rate mode                  : Constant
Frame rate                       : 23.976 fps
Resolution                       : 24 bits
Colorimetry                      : 4:2:0
Scan type                        : Progressive
Bits/(Pixel*Frame)               : 0.142
Stream size                      : 1.67 GiB (87%)
Writing library                  : x264 core 84 r1400M 20fa784
Encoded date                     : UTC 2011-01-12 04:55:23

Audio
==========
ID                               : 2
Format                           : AAC
Format/Info                      : Advanced Audio Codec
Format version                   : Version 4
Format profile                   : LC
Format settings, SBR             : No
Codec ID                         : 40
Duration                         : 1h 44mn
Bit rate mode                    : Variable
Bit rate                         : 352.8 Kbps
Maximum bit rate                 : 466 Kbps
Channel(s)                       : 6 channels
Channel positions                : Front: L C R, Rear: L R, LFE
Sampling rate                    : 48.0 KHz
Resolution                       : 16 bits
Stream size                      : 264 MiB (13%)
Encoded date                     : UTC 2011-01-12 10:53:58

Subtitles                        : English | French | Polish | Spanish


----------------------------------------------------
IMDB Link: http://www.imdb.com/title/tt0944835/
----------------------------------------------------



Screen Shots:
==============    
http://bayimg.com/ladlGaAdE 
http://bayimg.com/lAdlHAaDE 
http://bayimg.com/lAdLiAADE 
http://bayimg.com/ladlJaAde 
http://bayimg.com/lAdLkAadE



ScreenShots Comparison:
=========================  
http://screenshotcomparison.com/comparison/19814



Plot:
======
Before becoming a CIA officer, Evelyn Salt swore an oath to duty, honor, and country. She will prove loyal to these when a defector accuses her of being a Russian sleeper spy. Salt goes on the run, using all her skills and years of experience as a covert operative to elude capture, protect her husband, and stay one step ahead of her colleagues at the CIA.   



Release Info:
==============
original name .... : Salt Director's Cut 2010 720p H264 BRRip [ChattChitto RG]
ripper.............: ViSTA
encoder............: Recalled2Life (R2L)
video codec........: H264/.MP4
video bitrate......: 2300 Kbps
audio codec........: AAC-LC
aspect ratio.......: 2.40:1
resolution.........: 1280 x 528
genre..............: Action | Crime | Mystery
runtime............: 1h 44mn
language...........: English
rating.............: PG-13
subtitles..........: English | French | Polish | Spanish
sample.............: Yes [33.3 MB]
2ch Audio..........: 2ch Audio for XBox Viewers  
Compatibility .....: XBox | PS3 | WD Live



Source:
========
Salt.2010.3in1.1080p.Blu-ray.DTS.x264-ViSTA THANKS!



Notes:
=======
ChattChitto RG Encourages Burning this Film with ConvertXtoDVD.
XBox 360 | PS3 | WD Live - Compatible
Enhanced and Filtered for your viewing pleasure ;)